<svg width="24" height="24" viewBox="0 0 24 24" fill="inherit" xmlns="http://www.w3.org/2000/svg">
<path d="M5 21C4.45 21 3.97917 20.8042 3.5875 20.4125C3.19583 20.0208 3 19.55 3 19V5C3 4.45 3.19583 3.97917 3.5875 3.5875C3.97917 3.19583 4.45 3 5 3H14C13.6667 3.43333 13.4167 3.90833 13.25 4.425C13.0833 4.94167 13 5.46667 13 6C13 7.38333 13.4875 8.5625 14.4625 9.5375C15.4375 10.5125 16.6167 11 18 11C18.5333 11 19.0583 10.9167 19.575 10.75C20.0917 10.5833 20.5667 10.3333 21 10V19C21 19.55 20.8042 20.0208 20.4125 20.4125C20.0208 20.8042 19.55 21 19 21H5ZM6 17H18L14.25 12L11.25 16L9 13L6 17ZM17 9V7H15V5H17V3H19V5H21V7H19V9H17Z" fill="inherit"/>
</svg>
